<svg xmlns="http://www.w3.org/2000/svg" width="128" height="128" viewBox="0 0 128 128">
  <title>DOCUMENT</title>
  <g fill="#fff">
    <path
      d="M110.251,17.877H98.681V6.307a1.751,1.751,0,0,0-1.75-1.75H34.144a.347.347,0,0,0-.09.021,1.731,1.731,0,0,0-1.148.492L16.512,21.464a1.727,1.727,0,0,0-.492,1.148A.34.34,0,0,0,16,22.7v85.672a1.749,1.749,0,0,0,1.75,1.75h11.57v11.57a1.75,1.75,0,0,0,1.75,1.75h79.182a1.75,1.75,0,0,0,1.75-1.75V19.627A1.749,1.749,0,0,0,110.251,17.877ZM32.394,10.532V20.951H21.974ZM19.5,24.451H34.144a1.751,1.751,0,0,0,1.75-1.75V8.057H95.181v98.566H19.5Zm89,95.492H32.819v-9.82H96.931a1.75,1.75,0,0,0,1.75-1.75v-87h9.82Z" />
    <path d="M31.069,71.662H83.611a1.75,1.75,0,1,0,0-3.5H31.069a1.75,1.75,0,0,0,0,3.5Z" />
    <path d="M31.069,84.232H83.611a1.75,1.75,0,1,0,0-3.5H31.069a1.75,1.75,0,0,0,0,3.5Z" />
    <path d="M57.34,96.8a1.75,1.75,0,0,0,0-3.5H31.069a1.75,1.75,0,0,0,0,3.5Z" />
    <path d="M31.069,59.09H83.611a1.75,1.75,0,1,0,0-3.5H31.069a1.75,1.75,0,0,0,0,3.5Z" />
    <path d="M31.069,46.519H83.611a1.75,1.75,0,0,0,0-3.5H31.069a1.75,1.75,0,1,0,0,3.5Z" />
    <path d="M31.069,33.948H83.611a1.75,1.75,0,0,0,0-3.5H31.069a1.75,1.75,0,1,0,0,3.5Z" />
    <path d="M44.2,21.377H70.476a1.75,1.75,0,0,0,0-3.5H44.2a1.75,1.75,0,0,0,0,3.5Z" />
  </g>
</svg>