<svg width="25" height="32" viewBox="0 0 25 32" fill="none" xmlns="http://www.w3.org/2000/svg">
<path fill-rule="evenodd" clip-rule="evenodd" d="M14.2017 0.792085C13.4014 -0.264029 11.8139 -0.264028 11.0136 0.792086L3.24095 11.0494C2.88691 11.5166 2.77665 12.056 2.85552 12.5575C5.10989 9.64525 8.63983 7.7703 12.6077 7.7703C16.5755 7.7703 20.1055 9.64525 22.3598 12.5575C22.4387 12.0559 22.3284 11.5166 21.9744 11.0494L14.2017 0.792085Z" fill="white"/>
<path fill-rule="evenodd" clip-rule="evenodd" d="M12.6077 17.5971C16.5486 17.5971 19.7434 15.564 19.7434 13.0562C19.7434 12.57 19.6233 12.1016 19.401 11.6625C20.4317 12.4156 21.0408 13.3463 21.0408 14.3536C21.0408 16.8614 17.2652 18.8945 12.6077 18.8945C7.95022 18.8945 4.17459 16.8614 4.17459 14.3536C4.17459 13.3463 4.78369 12.4156 5.81437 11.6625C5.59206 12.1016 5.47199 12.57 5.47199 13.0562C5.47199 15.564 8.66675 17.5971 12.6077 17.5971Z" fill="white"/>
<path fill-rule="evenodd" clip-rule="evenodd" d="M8.10987 10.5007C9.49992 9.58146 11.0521 9.0677 12.6895 9.0677C14.2565 9.0677 15.7454 9.53822 17.0889 10.3844C17.1282 10.6381 17.1486 10.8985 17.1486 11.1639C17.1486 13.8121 15.1156 15.9588 12.6077 15.9588C10.0998 15.9588 8.06679 13.8121 8.06679 11.1639C8.06679 10.9389 8.08147 10.7175 8.10987 10.5007Z" fill="white"/>
<path fill-rule="evenodd" clip-rule="evenodd" d="M7.15337 19.1601C6.1195 18.7713 4.96617 19.2942 4.57733 20.328L2.01219 27.1483C1.62334 28.1822 2.14624 29.3355 3.1801 29.7243L5.54252 30.6129C6.30568 30.8999 7.13394 30.6901 7.67175 30.1448L7.22175 29.3025C6.60526 28.1487 6.13261 26.9237 5.81437 25.6548L5.202 23.2131C4.9333 22.1417 5.584 21.0553 6.65539 20.7866L9.54814 20.0611C9.53741 20.0569 9.52662 20.0527 9.51578 20.0486L7.15337 19.1601Z" fill="white"/>
<path fill-rule="evenodd" clip-rule="evenodd" d="M17.836 19.1601C18.8698 18.7713 20.0232 19.2942 20.412 20.328L22.9772 27.1483C23.366 28.1822 22.8431 29.3355 21.8092 29.7243L19.4468 30.6129C18.6837 30.8999 17.8554 30.6901 17.3176 30.1448L17.7676 29.3025C18.3841 28.1487 18.8567 26.9237 19.175 25.6548L19.7874 23.2131C20.0561 22.1417 19.4054 21.0553 18.334 20.7866L15.4412 20.0611C15.4519 20.0569 15.4627 20.0527 15.4736 20.0486L17.836 19.1601Z" fill="white"/>
<path d="M9.42268 21.2874C9.07206 21.2032 8.70624 21.1941 8.35624 21.2808V21.2808C7.23325 21.5593 6.5512 22.685 6.83285 23.7952L7.09556 24.8308C7.25724 25.4681 7.6645 26.6765 8.10983 27.8746C8.82808 29.807 10.5319 31.2738 12.5934 31.2692V31.2692C14.6718 31.2646 16.3958 29.7969 17.1182 27.8482C17.5578 26.6623 17.9576 25.4703 18.1198 24.8308L18.3825 23.7952C18.6641 22.685 17.9821 21.5593 16.8591 21.2808V21.2808C16.5723 21.2097 16.2726 21.2158 15.9853 21.285C13.8294 21.8045 11.5788 21.8053 9.42268 21.2874Z" fill="white"/>
</svg>
